<svg width="32" height="32" viewBox="0 0 32 32" fill="none" xmlns="http://www.w3.org/2000/svg">
<circle cx="16" cy="16" r="16" fill="black"/>
<path d="M12.2928 19.6364H18.8201V18.7273C18.8201 16.7182 20.4474 15.0909 22.4565 15.0909H23.1292L21.4019 7.41818C21.211 6.59091 20.4747 6 19.6292 6H16.0928V7.81818H19.6292L20.9019 13.5H20.8928C18.9292 14.0909 17.4292 15.7545 17.0838 17.8182H12.2928C11.8565 16.6 10.6019 15.7818 9.18376 16.0545C8.11103 16.2636 7.24739 17.1455 7.04739 18.2182C6.72921 19.9455 8.05648 21.4545 9.72921 21.4545C10.911 21.4545 11.911 20.6909 12.2928 19.6364ZM9.72921 19.6364C9.22921 19.6364 8.82012 19.2273 8.82012 18.7273C8.82012 18.2273 9.22921 17.8182 9.72921 17.8182C10.2292 17.8182 10.6383 18.2273 10.6383 18.7273C10.6383 19.2273 10.2292 19.6364 9.72921 19.6364Z" fill="#B80D0D"/>
<path d="M22.4565 16C20.9474 16 19.7292 17.2182 19.7292 18.7273C19.7292 20.2364 20.9474 21.4545 22.4565 21.4545C23.9656 21.4545 25.1838 20.2364 25.1838 18.7273C25.1838 17.2182 23.9656 16 22.4565 16ZM22.4565 19.6364C21.9565 19.6364 21.5474 19.2273 21.5474 18.7273C21.5474 18.2273 21.9565 17.8182 22.4565 17.8182C22.9565 17.8182 23.3656 18.2273 23.3656 18.7273C23.3656 19.2273 22.9565 19.6364 22.4565 19.6364Z" fill="#B80D0D"/>
<path d="M15.1838 23.2727H11.5474L17.0019 26V24.1818H20.6383L15.1838 21.4546V23.2727Z" fill="#B80D0D"/>
</svg>
