<svg width="19" height="20" viewBox="0 0 19 20" fill="none" xmlns="http://www.w3.org/2000/svg">
<path d="M5.29285 13.6364H11.8201V12.7273C11.8201 10.7182 13.4474 9.09091 15.4565 9.09091H16.1292L14.4019 1.41818C14.211 0.590909 13.4747 0 12.6292 0H9.09285V1.81818H12.6292L13.9019 7.5H13.8928C11.9292 8.09091 10.4292 9.75455 10.0838 11.8182H5.29285C4.85648 10.6 3.60194 9.78182 2.18376 10.0545C1.11103 10.2636 0.247393 11.1455 0.0473931 12.2182C-0.270789 13.9455 1.05648 15.4545 2.72921 15.4545C3.91103 15.4545 4.91103 14.6909 5.29285 13.6364ZM2.72921 13.6364C2.22921 13.6364 1.82012 13.2273 1.82012 12.7273C1.82012 12.2273 2.22921 11.8182 2.72921 11.8182C3.22921 11.8182 3.6383 12.2273 3.6383 12.7273C3.6383 13.2273 3.22921 13.6364 2.72921 13.6364Z" fill="#B80D0D"/>
<path d="M15.4565 10C13.9474 10 12.7292 11.2182 12.7292 12.7273C12.7292 14.2364 13.9474 15.4545 15.4565 15.4545C16.9656 15.4545 18.1838 14.2364 18.1838 12.7273C18.1838 11.2182 16.9656 10 15.4565 10ZM15.4565 13.6364C14.9565 13.6364 14.5474 13.2273 14.5474 12.7273C14.5474 12.2273 14.9565 11.8182 15.4565 11.8182C15.9565 11.8182 16.3656 12.2273 16.3656 12.7273C16.3656 13.2273 15.9565 13.6364 15.4565 13.6364Z" fill="#B80D0D"/>
<path d="M8.18376 17.2727H4.54739L10.0019 20V18.1818H13.6383L8.18376 15.4546V17.2727Z" fill="#B80D0D"/>
</svg>
