<svg width="174" height="41" viewBox="0 0 174 41" fill="none" xmlns="http://www.w3.org/2000/svg">
<path d="M32.4 -2.38419e-06V24.05C32.4 29.3167 30.9333 33.35 28 36.15C25.0667 38.9833 21.0167 40.4 15.85 40.4C12.8833 40.4 10.1667 39.9833 7.7 39.15C5.23333 38.35 3.13333 37.2 1.4 35.7L4.55 29.7C7.71667 32.2667 11.4167 33.55 15.65 33.55C18.5833 33.55 20.75 32.8167 22.15 31.35C23.5833 29.85 24.3 27.55 24.3 24.45V22.3C21.9667 25.1667 18.6667 26.6 14.4 26.6C9.96667 26.6 6.55 25.35 4.15 22.85C1.78333 20.3167 0.6 16.6833 0.6 11.95V-2.38419e-06H8.7V11.45C8.7 14.1833 9.35 16.25 10.65 17.65C11.95 19.05 13.7833 19.75 16.15 19.75C18.65 19.75 20.6333 19.0167 22.1 17.55C23.5667 16.0833 24.3 13.8667 24.3 10.9V-2.38419e-06H32.4ZM52.6578 35.4C49.8245 35.4 47.2745 34.8167 45.0078 33.65C42.7745 32.45 41.0245 30.8 39.7578 28.7C38.4911 26.6 37.8578 24.2167 37.8578 21.55C37.8578 18.8833 38.4911 16.5 39.7578 14.4C41.0245 12.3 42.7745 10.6667 45.0078 9.5C47.2745 8.3 49.8245 7.7 52.6578 7.7C55.4911 7.7 58.0245 8.3 60.2578 9.5C62.4911 10.6667 64.2411 12.3 65.5078 14.4C66.7745 16.5 67.4078 18.8833 67.4078 21.55C67.4078 24.2167 66.7745 26.6 65.5078 28.7C64.2411 30.8 62.4911 32.45 60.2578 33.65C58.0245 34.8167 55.4911 35.4 52.6578 35.4ZM52.6578 29C54.6578 29 56.2911 28.3333 57.5578 27C58.8578 25.6333 59.5078 23.8167 59.5078 21.55C59.5078 19.2833 58.8578 17.4833 57.5578 16.15C56.2911 14.7833 54.6578 14.1 52.6578 14.1C50.6578 14.1 49.0078 14.7833 47.7078 16.15C46.4078 17.4833 45.7578 19.2833 45.7578 21.55C45.7578 23.8167 46.4078 25.6333 47.7078 27C49.0078 28.3333 50.6578 29 52.6578 29ZM85.4215 35.4C82.5882 35.4 80.0382 34.8167 77.7715 33.65C75.5382 32.45 73.7882 30.8 72.5215 28.7C71.2548 26.6 70.6215 24.2167 70.6215 21.55C70.6215 18.8833 71.2548 16.5 72.5215 14.4C73.7882 12.3 75.5382 10.6667 77.7715 9.5C80.0382 8.3 82.5882 7.7 85.4215 7.7C88.2548 7.7 90.7882 8.3 93.0215 9.5C95.2548 10.6667 97.0048 12.3 98.2715 14.4C99.5382 16.5 100.171 18.8833 100.171 21.55C100.171 24.2167 99.5382 26.6 98.2715 28.7C97.0048 30.8 95.2548 32.45 93.0215 33.65C90.7882 34.8167 88.2548 35.4 85.4215 35.4ZM85.4215 29C87.4215 29 89.0548 28.3333 90.3215 27C91.6215 25.6333 92.2715 23.8167 92.2715 21.55C92.2715 19.2833 91.6215 17.4833 90.3215 16.15C89.0548 14.7833 87.4215 14.1 85.4215 14.1C83.4215 14.1 81.7715 14.7833 80.4715 16.15C79.1715 17.4833 78.5215 19.2833 78.5215 21.55C78.5215 23.8167 79.1715 25.6333 80.4715 27C81.7715 28.3333 83.4215 29 85.4215 29ZM121.585 33.7C120.818 34.2667 119.868 34.7 118.735 35C117.635 35.2667 116.485 35.4 115.285 35.4C112.052 35.4 109.568 34.5833 107.835 32.95C106.102 31.3167 105.235 28.9167 105.235 25.75V2.15H113.035V8.7H119.685V14.7H113.035V25.65C113.035 26.7833 113.318 27.6667 113.885 28.3C114.452 28.9 115.268 29.2 116.335 29.2C117.535 29.2 118.602 28.8667 119.535 28.2L121.585 33.7ZM138.711 29.15C140.111 29.15 141.344 28.95 142.411 28.55C143.511 28.1167 144.527 27.45 145.461 26.55L149.611 31.05C147.077 33.95 143.377 35.4 138.511 35.4C135.477 35.4 132.794 34.8167 130.461 33.65C128.127 32.45 126.327 30.8 125.061 28.7C123.794 26.6 123.161 24.2167 123.161 21.55C123.161 18.9167 123.777 16.55 125.011 14.45C126.277 12.3167 127.994 10.6667 130.161 9.5C132.361 8.3 134.827 7.7 137.561 7.7C140.127 7.7 142.461 8.25 144.561 9.35C146.661 10.4167 148.327 11.9833 149.561 14.05C150.827 16.0833 151.461 18.5 151.461 21.3L131.561 25.15C132.127 26.4833 133.011 27.4833 134.211 28.15C135.444 28.8167 136.944 29.15 138.711 29.15ZM137.561 13.6C135.594 13.6 133.994 14.2333 132.761 15.5C131.527 16.7667 130.877 18.5167 130.811 20.75L143.911 18.2C143.544 16.8 142.794 15.6833 141.661 14.85C140.527 14.0167 139.161 13.6 137.561 13.6ZM164.154 11.65C165.087 10.35 166.337 9.36666 167.904 8.7C169.504 8.03333 171.337 7.7 173.404 7.7V14.9C172.537 14.8333 171.954 14.8 171.654 14.8C169.42 14.8 167.67 15.4333 166.404 16.7C165.137 17.9333 164.504 19.8 164.504 22.3V35H156.704V8.1H164.154V11.65Z" fill="white"/>
</svg>
