<svg width="30" height="32" viewBox="0 0 30 32" fill="none" xmlns="http://www.w3.org/2000/svg">
<path d="M8.57965 21.599H19.1603V20.1845C19.1603 17.0585 21.7981 14.5266 25.0548 14.5266H26.1453L23.3454 2.58842C23.0359 1.30124 21.8423 0.381836 20.4718 0.381836H14.7394V3.21079H20.4718L22.5349 12.0513H22.5202C19.3371 12.9707 16.9056 15.5591 16.3457 18.77H8.57965C7.87231 16.8746 5.8387 15.6016 3.53985 16.0259C1.80097 16.3513 0.401021 17.7233 0.0768237 19.3924C-0.438946 22.0799 1.71255 24.4279 4.42402 24.4279C6.33974 24.4279 7.96073 23.2397 8.57965 21.599ZM4.42402 21.599C3.61353 21.599 2.9504 20.9624 2.9504 20.1845C2.9504 19.4065 3.61353 18.77 4.42402 18.77C5.23452 18.77 5.89765 19.4065 5.89765 20.1845C5.89765 20.9624 5.23452 21.599 4.42402 21.599Z" fill="white"/>
<path d="M25.0548 15.941C22.6086 15.941 20.6339 17.8364 20.6339 20.1845C20.6339 22.5325 22.6086 24.4279 25.0548 24.4279C27.501 24.4279 29.4757 22.5325 29.4757 20.1845C29.4757 17.8364 27.501 15.941 25.0548 15.941ZM25.0548 21.5989C24.2443 21.5989 23.5812 20.9624 23.5812 20.1845C23.5812 19.4065 24.2443 18.77 25.0548 18.77C25.8653 18.77 26.5284 19.4065 26.5284 20.1845C26.5284 20.9624 25.8653 21.5989 25.0548 21.5989Z" fill="white"/>
<path d="M13.2658 27.2568H7.37134L16.2131 31.5002V28.6713H22.1076L13.2658 24.4279V27.2568Z" fill="white"/>
</svg>
