<svg width="36" height="36" viewBox="0 0 36 36" fill="none" xmlns="http://www.w3.org/2000/svg">
<path d="M30.4677 12.8121L28.6289 15.5778C29.5157 17.3465 29.9498 19.3075 29.8924 21.2852C29.835 23.2629 29.2879 25.1955 28.3 26.9098H7.57952C6.29558 24.6824 5.76356 22.1006 6.06232 19.5471C6.36109 16.9936 7.47474 14.6043 9.23818 12.7335C11.0016 10.8626 13.321 9.60987 15.8524 9.16086C18.3838 8.71185 20.9925 9.0905 23.2918 10.2407L26.0575 8.40186C23.2417 6.59624 19.9017 5.78714 16.5717 6.10398C13.2417 6.42081 10.1142 7.84527 7.68939 10.1495C5.2646 12.4538 3.68264 15.5046 3.19655 18.8142C2.71047 22.1237 3.34834 25.5006 5.00815 28.4048C5.26904 28.8567 5.64365 29.2324 6.09475 29.4947C6.54585 29.7569 7.05773 29.8966 7.57952 29.8997H28.2851C28.8119 29.9018 29.33 29.7647 29.7868 29.5021C30.2436 29.2396 30.6229 28.861 30.8863 28.4048C32.2638 26.0186 32.955 23.2983 32.8838 20.5441C32.8126 17.7898 31.9816 15.1088 30.4827 12.7971L30.4677 12.8121ZM15.8318 23.0378C16.1095 23.3158 16.4393 23.5363 16.8023 23.6868C17.1652 23.8372 17.5543 23.9147 17.9472 23.9147C18.3402 23.9147 18.7292 23.8372 19.0922 23.6868C19.4552 23.5363 19.785 23.3158 20.0626 23.0378L28.5243 10.3453L15.8318 18.807C15.5538 19.0846 15.3333 19.4144 15.1828 19.7774C15.0324 20.1404 14.9549 20.5294 14.9549 20.9224C14.9549 21.3153 15.0324 21.7044 15.1828 22.0673C15.3333 22.4303 15.5538 22.7601 15.8318 23.0378V23.0378Z" fill="black"/>
</svg>
