<svg width="35" height="35" viewBox="0 0 35 35" fill="none" xmlns="http://www.w3.org/2000/svg">
<g clip-path="url(#clip0_16_466)">
<path d="M29.7208 12.4979L27.927 15.1958C28.7921 16.9211 29.2156 18.8341 29.1596 20.7633C29.1036 22.6925 28.5699 24.5777 27.6062 26.25H7.39372C6.14125 24.0772 5.62227 21.5587 5.91371 19.0678C6.20515 16.5769 7.2915 14.2462 9.01171 12.4212C10.7319 10.5963 12.9944 9.3742 15.4638 8.9362C17.9331 8.49819 20.4779 8.86757 22.7208 9.98956L25.4187 8.19581C22.6719 6.43446 19.4138 5.64519 16.1654 5.95426C12.9171 6.26332 9.86624 7.65286 7.50089 9.90062C5.13555 12.1484 3.59237 15.1245 3.1182 18.3528C2.64403 21.5812 3.26627 24.8753 4.88538 27.7083C5.13988 28.1491 5.5053 28.5157 5.94534 28.7715C6.38539 29.0273 6.88472 29.1636 7.39372 29.1666H27.5916C28.1056 29.1687 28.6109 29.0349 29.0565 28.7788C29.5021 28.5227 29.8722 28.1534 30.1291 27.7083C31.4728 25.3807 32.1471 22.727 32.0776 20.0403C32.0082 17.3536 31.1976 14.7384 29.7354 12.4833L29.7208 12.4979ZM15.4437 22.4729C15.7146 22.7441 16.0363 22.9592 16.3903 23.106C16.7444 23.2528 17.124 23.3283 17.5073 23.3283C17.8906 23.3283 18.2701 23.2528 18.6242 23.106C18.9782 22.9592 19.2999 22.7441 19.5708 22.4729L27.825 10.0916L15.4437 18.3458C15.1725 18.6167 14.9574 18.9384 14.8106 19.2924C14.6638 19.6465 14.5883 20.0261 14.5883 20.4093C14.5883 20.7926 14.6638 21.1722 14.8106 21.5263C14.9574 21.8803 15.1725 22.202 15.4437 22.4729V22.4729Z" fill="white"/>
</g>
<defs>
<clipPath id="clip0_16_466">
<rect width="35" height="35" fill="white"/>
</clipPath>
</defs>
</svg>
