<svg width="35" height="35" viewBox="0 0 35 35" fill="none" xmlns="http://www.w3.org/2000/svg">
<g clip-path="url(#clip0_16_300)">
<path d="M9.85825 7.05837L7.23325 4.44796L5.177 6.50421L7.78742 9.11462L9.85825 7.05837ZM5.83325 15.3125H1.45825V18.2292H5.83325V15.3125ZM18.9583 0.802124H16.0416V5.10421H18.9583V0.802124V0.802124ZM29.8228 6.50421L27.7666 4.44796L25.1562 7.05837L27.2124 9.11462L29.8228 6.50421ZM25.1416 26.4834L27.752 29.1084L29.8083 27.0521L27.1832 24.4417L25.1416 26.4834ZM29.1666 15.3125V18.2292H33.5416V15.3125H29.1666ZM17.4999 8.02087C12.6728 8.02087 8.74992 11.9438 8.74992 16.7709C8.74992 21.598 12.6728 25.5209 17.4999 25.5209C22.327 25.5209 26.2499 21.598 26.2499 16.7709C26.2499 11.9438 22.327 8.02087 17.4999 8.02087ZM16.0416 32.7396H18.9583V28.4375H16.0416V32.7396ZM5.177 27.0375L7.23325 29.0938L9.84367 26.4688L7.78742 24.4125L5.177 27.0375Z" fill="white"/>
</g>
<defs>
<clipPath id="clip0_16_300">
<rect width="35" height="35" fill="white"/>
</clipPath>
</defs>
</svg>
